# xmcd
#
# Track frame offsets: 
#        150
#        12225
#        25507
#        38827
#        49545
#        62082
#        74067
#        92355
#        104782
#        119412
#        135295
#        150280
#        164045
#        177990
#        190477
#        207587
#        220507
#        234795
#        249332
#        266480
#
# Disc length: 3790 seconds
#
# Revision: 0
# Processed by: cddbd v1.5.1PL0 Copyright (c) Steve Scherf et al.
# Submitted via: ExactAudioCopy v0.95a5
#
DISCID=0f0ecc14
DTITLE=Dolly Parton - The Collection
DYEAR=2002
DGENRE=Country
TTITLE0=Jolene
TTITLE1=I Will Always Love You
TTITLE2=Here You Come Again
TTITLE3=Love Is Like A Butterfly
TTITLE4=9 to 5
TTITLE5=Me And Little Andy
TTITLE6=Do I Ever Cross Your Mind
TTITLE7=D.I.V.O.R.C.E
TTITLE8=Harper Valley P.T.A.
TTITLE9=Heartbreaker
TTITLE10=But You Know I Love You
TTITLE11=Two Doors Down
TTITLE12=Just Because I'm A Woman
TTITLE13=In The Ghetto
TTITLE14=Save The Last Dance Me
TTITLE15=Daddy's Working Boots
TTITLE16=Mule Skinner Blues
TTITLE17=We Used To
TTITLE18=Down From Dover
TTITLE19=Starting Over Again
EXTD=
EXTT0=
EXTT1=
EXTT2=
EXTT3=
EXTT4=
EXTT5=
EXTT6=
EXTT7=
EXTT8=
EXTT9=
EXTT10=
EXTT11=
EXTT12=
EXTT13=
EXTT14=
EXTT15=
EXTT16=
EXTT17=
EXTT18=
EXTT19=
PLAYORDER=
